<mxfile host="app.diagrams.net" agent="Mozilla/5.0 (Windows NT 10.0; Win64; x64; rv:137.0) Gecko/20100101 Firefox/137.0" version="26.2.8">
  <diagram name="PÃ¡gina-1" id="vbkNWvASaoUP57uY1uon">
    <mxGraphModel dx="1148" dy="656" grid="1" gridSize="10" guides="1" tooltips="1" connect="1" arrows="1" fold="1" page="1" pageScale="1" pageWidth="827" pageHeight="1169" math="0" shadow="0">
      <root>
        <mxCell id="0" />
        <mxCell id="1" parent="0" />
        <mxCell id="tR-CPpiOO4IYNWdx_4qN-1" value="" style="whiteSpace=wrap;html=1;aspect=fixed;" vertex="1" parent="1">
          <mxGeometry x="90" y="80" width="570" height="570" as="geometry" />
        </mxCell>
        <mxCell id="tR-CPpiOO4IYNWdx_4qN-13" value="" style="rounded=0;whiteSpace=wrap;html=1;" vertex="1" parent="1">
          <mxGeometry x="110" y="87.5" width="400" height="55" as="geometry" />
        </mxCell>
        <mxCell id="tR-CPpiOO4IYNWdx_4qN-2" value="Search" style="rounded=0;whiteSpace=wrap;html=1;" vertex="1" parent="1">
          <mxGeometry x="120" y="100" width="130" height="30" as="geometry" />
        </mxCell>
        <mxCell id="tR-CPpiOO4IYNWdx_4qN-52" style="edgeStyle=orthogonalEdgeStyle;rounded=0;orthogonalLoop=1;jettySize=auto;html=1;" edge="1" parent="1" source="tR-CPpiOO4IYNWdx_4qN-3">
          <mxGeometry relative="1" as="geometry">
            <mxPoint x="370" y="40" as="targetPoint" />
          </mxGeometry>
        </mxCell>
        <mxCell id="tR-CPpiOO4IYNWdx_4qN-3" value="Categorias" style="rounded=0;whiteSpace=wrap;html=1;" vertex="1" parent="1">
          <mxGeometry x="260" y="100" width="110" height="30" as="geometry" />
        </mxCell>
        <mxCell id="tR-CPpiOO4IYNWdx_4qN-53" style="edgeStyle=orthogonalEdgeStyle;rounded=0;orthogonalLoop=1;jettySize=auto;html=1;" edge="1" parent="1" source="tR-CPpiOO4IYNWdx_4qN-4">
          <mxGeometry relative="1" as="geometry">
            <mxPoint x="370" y="40" as="targetPoint" />
            <Array as="points">
              <mxPoint x="420" y="71" />
              <mxPoint x="370" y="71" />
            </Array>
          </mxGeometry>
        </mxCell>
        <mxCell id="tR-CPpiOO4IYNWdx_4qN-4" value="Marcas" style="rounded=0;whiteSpace=wrap;html=1;" vertex="1" parent="1">
          <mxGeometry x="385" y="100" width="110" height="30" as="geometry" />
        </mxCell>
        <mxCell id="tR-CPpiOO4IYNWdx_4qN-5" value="" style="rounded=0;whiteSpace=wrap;html=1;" vertex="1" parent="1">
          <mxGeometry x="110" y="160" width="520" height="70" as="geometry" />
        </mxCell>
        <mxCell id="tR-CPpiOO4IYNWdx_4qN-10" value="Agregar" style="rounded=0;whiteSpace=wrap;html=1;" vertex="1" parent="1">
          <mxGeometry x="520" y="100" width="110" height="30" as="geometry" />
        </mxCell>
        <mxCell id="tR-CPpiOO4IYNWdx_4qN-14" value="Modificar" style="rounded=0;whiteSpace=wrap;html=1;" vertex="1" parent="1">
          <mxGeometry x="495" y="170" width="100" height="20" as="geometry" />
        </mxCell>
        <mxCell id="tR-CPpiOO4IYNWdx_4qN-16" value="Eliminar" style="rounded=0;whiteSpace=wrap;html=1;" vertex="1" parent="1">
          <mxGeometry x="495" y="200" width="100" height="20" as="geometry" />
        </mxCell>
        <mxCell id="tR-CPpiOO4IYNWdx_4qN-18" value="Foto" style="rounded=0;whiteSpace=wrap;html=1;" vertex="1" parent="1">
          <mxGeometry x="140" y="170" width="110" height="50" as="geometry" />
        </mxCell>
        <mxCell id="tR-CPpiOO4IYNWdx_4qN-19" value="Foto" style="rounded=0;whiteSpace=wrap;html=1;" vertex="1" parent="1">
          <mxGeometry x="260" y="170" width="110" height="50" as="geometry" />
        </mxCell>
        <mxCell id="tR-CPpiOO4IYNWdx_4qN-20" value="Foto" style="rounded=0;whiteSpace=wrap;html=1;" vertex="1" parent="1">
          <mxGeometry x="380" y="170" width="110" height="50" as="geometry" />
        </mxCell>
        <mxCell id="tR-CPpiOO4IYNWdx_4qN-22" value="" style="rounded=0;whiteSpace=wrap;html=1;" vertex="1" parent="1">
          <mxGeometry x="110" y="240" width="520" height="70" as="geometry" />
        </mxCell>
        <mxCell id="tR-CPpiOO4IYNWdx_4qN-23" value="Modificar" style="rounded=0;whiteSpace=wrap;html=1;" vertex="1" parent="1">
          <mxGeometry x="495" y="250" width="100" height="20" as="geometry" />
        </mxCell>
        <mxCell id="tR-CPpiOO4IYNWdx_4qN-24" value="Eliminar" style="rounded=0;whiteSpace=wrap;html=1;" vertex="1" parent="1">
          <mxGeometry x="495" y="280" width="100" height="20" as="geometry" />
        </mxCell>
        <mxCell id="tR-CPpiOO4IYNWdx_4qN-25" value="Foto" style="rounded=0;whiteSpace=wrap;html=1;" vertex="1" parent="1">
          <mxGeometry x="140" y="250" width="110" height="50" as="geometry" />
        </mxCell>
        <mxCell id="tR-CPpiOO4IYNWdx_4qN-26" value="Foto" style="rounded=0;whiteSpace=wrap;html=1;" vertex="1" parent="1">
          <mxGeometry x="260" y="250" width="110" height="50" as="geometry" />
        </mxCell>
        <mxCell id="tR-CPpiOO4IYNWdx_4qN-27" value="Foto" style="rounded=0;whiteSpace=wrap;html=1;" vertex="1" parent="1">
          <mxGeometry x="380" y="250" width="110" height="50" as="geometry" />
        </mxCell>
        <mxCell id="tR-CPpiOO4IYNWdx_4qN-28" value="" style="rounded=0;whiteSpace=wrap;html=1;" vertex="1" parent="1">
          <mxGeometry x="110" y="320" width="520" height="70" as="geometry" />
        </mxCell>
        <mxCell id="tR-CPpiOO4IYNWdx_4qN-29" value="Modificar" style="rounded=0;whiteSpace=wrap;html=1;" vertex="1" parent="1">
          <mxGeometry x="495" y="330" width="100" height="20" as="geometry" />
        </mxCell>
        <mxCell id="tR-CPpiOO4IYNWdx_4qN-30" value="Eliminar" style="rounded=0;whiteSpace=wrap;html=1;" vertex="1" parent="1">
          <mxGeometry x="495" y="360" width="100" height="20" as="geometry" />
        </mxCell>
        <mxCell id="tR-CPpiOO4IYNWdx_4qN-31" value="Foto" style="rounded=0;whiteSpace=wrap;html=1;" vertex="1" parent="1">
          <mxGeometry x="140" y="330" width="110" height="50" as="geometry" />
        </mxCell>
        <mxCell id="tR-CPpiOO4IYNWdx_4qN-32" value="Foto" style="rounded=0;whiteSpace=wrap;html=1;" vertex="1" parent="1">
          <mxGeometry x="260" y="330" width="110" height="50" as="geometry" />
        </mxCell>
        <mxCell id="tR-CPpiOO4IYNWdx_4qN-33" value="Foto" style="rounded=0;whiteSpace=wrap;html=1;" vertex="1" parent="1">
          <mxGeometry x="380" y="330" width="110" height="50" as="geometry" />
        </mxCell>
        <mxCell id="tR-CPpiOO4IYNWdx_4qN-34" value="" style="rounded=0;whiteSpace=wrap;html=1;" vertex="1" parent="1">
          <mxGeometry x="110" y="400" width="520" height="70" as="geometry" />
        </mxCell>
        <mxCell id="tR-CPpiOO4IYNWdx_4qN-35" value="Modificar" style="rounded=0;whiteSpace=wrap;html=1;" vertex="1" parent="1">
          <mxGeometry x="495" y="410" width="100" height="20" as="geometry" />
        </mxCell>
        <mxCell id="tR-CPpiOO4IYNWdx_4qN-36" value="Eliminar" style="rounded=0;whiteSpace=wrap;html=1;" vertex="1" parent="1">
          <mxGeometry x="495" y="440" width="100" height="20" as="geometry" />
        </mxCell>
        <mxCell id="tR-CPpiOO4IYNWdx_4qN-37" value="Foto" style="rounded=0;whiteSpace=wrap;html=1;" vertex="1" parent="1">
          <mxGeometry x="140" y="410" width="110" height="50" as="geometry" />
        </mxCell>
        <mxCell id="tR-CPpiOO4IYNWdx_4qN-38" value="Foto" style="rounded=0;whiteSpace=wrap;html=1;" vertex="1" parent="1">
          <mxGeometry x="260" y="410" width="110" height="50" as="geometry" />
        </mxCell>
        <mxCell id="tR-CPpiOO4IYNWdx_4qN-39" value="Foto" style="rounded=0;whiteSpace=wrap;html=1;" vertex="1" parent="1">
          <mxGeometry x="380" y="410" width="110" height="50" as="geometry" />
        </mxCell>
        <mxCell id="tR-CPpiOO4IYNWdx_4qN-40" value="" style="rounded=0;whiteSpace=wrap;html=1;" vertex="1" parent="1">
          <mxGeometry x="110" y="480" width="520" height="70" as="geometry" />
        </mxCell>
        <mxCell id="tR-CPpiOO4IYNWdx_4qN-41" value="Modificar" style="rounded=0;whiteSpace=wrap;html=1;" vertex="1" parent="1">
          <mxGeometry x="495" y="490" width="100" height="20" as="geometry" />
        </mxCell>
        <mxCell id="tR-CPpiOO4IYNWdx_4qN-42" value="Eliminar" style="rounded=0;whiteSpace=wrap;html=1;" vertex="1" parent="1">
          <mxGeometry x="495" y="520" width="100" height="20" as="geometry" />
        </mxCell>
        <mxCell id="tR-CPpiOO4IYNWdx_4qN-43" value="Foto" style="rounded=0;whiteSpace=wrap;html=1;" vertex="1" parent="1">
          <mxGeometry x="140" y="490" width="110" height="50" as="geometry" />
        </mxCell>
        <mxCell id="tR-CPpiOO4IYNWdx_4qN-44" value="Foto" style="rounded=0;whiteSpace=wrap;html=1;" vertex="1" parent="1">
          <mxGeometry x="260" y="490" width="110" height="50" as="geometry" />
        </mxCell>
        <mxCell id="tR-CPpiOO4IYNWdx_4qN-45" value="Foto" style="rounded=0;whiteSpace=wrap;html=1;" vertex="1" parent="1">
          <mxGeometry x="380" y="490" width="110" height="50" as="geometry" />
        </mxCell>
        <mxCell id="tR-CPpiOO4IYNWdx_4qN-46" value="" style="rounded=0;whiteSpace=wrap;html=1;" vertex="1" parent="1">
          <mxGeometry x="110" y="560" width="520" height="70" as="geometry" />
        </mxCell>
        <mxCell id="tR-CPpiOO4IYNWdx_4qN-47" value="Modificar" style="rounded=0;whiteSpace=wrap;html=1;" vertex="1" parent="1">
          <mxGeometry x="495" y="570" width="100" height="20" as="geometry" />
        </mxCell>
        <mxCell id="tR-CPpiOO4IYNWdx_4qN-48" value="Eliminar" style="rounded=0;whiteSpace=wrap;html=1;" vertex="1" parent="1">
          <mxGeometry x="495" y="600" width="100" height="20" as="geometry" />
        </mxCell>
        <mxCell id="tR-CPpiOO4IYNWdx_4qN-49" value="Foto" style="rounded=0;whiteSpace=wrap;html=1;" vertex="1" parent="1">
          <mxGeometry x="140" y="570" width="110" height="50" as="geometry" />
        </mxCell>
        <mxCell id="tR-CPpiOO4IYNWdx_4qN-50" value="Foto" style="rounded=0;whiteSpace=wrap;html=1;" vertex="1" parent="1">
          <mxGeometry x="260" y="570" width="110" height="50" as="geometry" />
        </mxCell>
        <mxCell id="tR-CPpiOO4IYNWdx_4qN-51" value="Foto" style="rounded=0;whiteSpace=wrap;html=1;" vertex="1" parent="1">
          <mxGeometry x="380" y="570" width="110" height="50" as="geometry" />
        </mxCell>
        <mxCell id="tR-CPpiOO4IYNWdx_4qN-54" value="SelectPicker" style="rounded=0;whiteSpace=wrap;html=1;" vertex="1" parent="1">
          <mxGeometry x="315" y="10" width="110" height="30" as="geometry" />
        </mxCell>
      </root>
    </mxGraphModel>
  </diagram>
</mxfile>
